<svg width="645" height="585" xmlns="http://www.w3.org/2000/svg" xmlns:svg="http://www.w3.org/2000/svg" xmlns:xlink="http://www.w3.org/1999/xlink" style="vector-effect: non-scaling-stroke;">
 <defs style="vector-effect: non-scaling-stroke;">
  <symbol style="vector-effect: non-scaling-stroke;" id="svg_8" clip-rule="evenodd" xmlns:xlink="http://www.w3.org/1999/xlink" viewBox="0 0 54.1866 40.64" height="40.64mm" width="54.1866mm" xmlns="http://www.w3.org/2000/svg">
   <defs style="vector-effect: non-scaling-stroke;">
    <style style="vector-effect: non-scaling-stroke;" type="text/css">
     <![CDATA[
    .fil0 {fill:#2B2A29;fill-rule:nonzero}
   ]]>
    </style>
   </defs>
   <g style="vector-effect: non-scaling-stroke;" id="svg_6">
    <metadata style="vector-effect: non-scaling-stroke;" id="svg_7"/>
    <path style="vector-effect: non-scaling-stroke;" fill="#242b32" d="m29.898001,26.572201l-4.392101,0c-0.011799,-0.635 -0.0177,-1.0172 -0.0177,-1.1583c0,-1.422901 0.235201,-2.592901 0.705601,-3.510201c0.4704,-0.9231 1.417,-1.952 2.8281,-3.104401c1.4111,-1.1465 2.257799,-1.899099 2.5282,-2.257799c0.429199,-0.5585 0.640902,-1.1818 0.640902,-1.8579c0,-0.940801 -0.376303,-1.746301 -1.128902,-2.4224c-0.7526,-0.6703 -1.763899,-1.0054 -3.0397,-1.0054c-1.228899,0 -2.257799,0.352699 -3.0868,1.0524c-0.8232,0.6997 -1.393499,1.7698 -1.705101,3.2044l-4.439098,-0.5527c0.1234,-2.0578 0.999498,-3.8041 2.622299,-5.2387c1.628599,-1.4346 3.757,-2.152 6.402901,-2.152c2.7752,0 4.985901,0.7291 6.632198,2.1814c1.6404,1.4522 2.463501,3.1397 2.463501,5.0741c0,1.064199 -0.305698,2.0755 -0.905399,3.027999c-0.605602,0.952501 -1.893299,2.251902 -3.868801,3.892302c-1.0231,0.852499 -1.6581,1.534599 -1.904999,2.052c-0.246901,0.517399 -0.358702,1.440498 -0.3351,2.7752zm-4.392101,6.508698l0,-4.838898l4.838902,0l0,4.838898l-4.838902,0z" class="fil0"/>/&gt;</g>
  </symbol>
 </defs>
 <g>
  <title>Layer 1</title>
  <g id="layer1">
   <path fill="#ffffff" id="path2417" d="m298.091217,550.868225c-13.775024,-15.43634 -48.17067,-45.529663 -76.434708,-66.874115c-83.744095,-63.241821 -95.141685,-72.394196 -129.143524,-103.703217c-62.684525,-57.720184 -89.305615,-115.710022 -89.214386,-194.339661c0.04451,-38.38385 2.66077,-53.171936 13.409881,-75.797256c18.236698,-38.385719 45.100269,-66.909306 79.445313,-84.354517c24.325401,-12.35578 36.322647,-17.84526 76.944427,-18.069839c42.493301,-0.23483 51.438629,4.71973 76.434723,18.451839c30.424515,16.714319 61.739914,52.435698 68.213242,77.810591l3.998108,15.672401l9.859619,-21.584511c55.716156,-121.972931 233.598358,-120.14805 295.502289,3.031586c19.637695,39.07605 21.79364,122.513168 4.380127,169.512863c-22.715271,61.309387 -65.380005,108.050537 -164.006348,179.676605c-64.680817,46.973633 -137.884735,118.045868 -142.980682,128.027985c-5.915466,11.587585 -0.282135,1.815918 -26.408081,-27.460754z"/>
   <g id="g2221"/>
  </g>
  <g style="vector-effect: non-scaling-stroke;" id="svg_5"/>
  <use fill="#ff7f00" x="5.471015" y="11.72409" transform="matrix(2.78865, 0, 0, 3.08704, 15.2, 29.5631)" xlink:href="#svg_8" id="svg_9"/>
  <g style="vector-effect: non-scaling-stroke;" id="svg_10"/>
 </g>
</svg>